<svg xmlns="http://www.w3.org/2000/svg" width="67.093" height="71.41" viewBox="0 0 67.093 71.41"><defs><style>.cls-1{fill:#c4c4c4;fill-rule:evenodd}</style></defs><path id="nodejs.svg" class="cls-1" d="M530.7 1555.23c4.826 1.21 9.941 1.09 14.675 2.7a6.817 6.817 0 0 1 4.548 3.9 8.132 8.132 0 0 1-1.464 7.97 11.727 11.727 0 0 1-6.2 3.23 30.958 30.958 0 0 1-9.364.38c-2.928-.32-5.976-1.07-8.236-2.99a8.213 8.213 0 0 1-2.784-6.59.768.768 0 0 1 .855-.66q1.756-.015 3.511 0a.809.809 0 0 1 .837.78 5.088 5.088 0 0 0 1.98 3.61c2.378 1.48 5.362 1.38 8.085 1.42 2.256-.1 4.788-.13 6.629-1.57a3.446 3.446 0 0 0 1-3.37 3.131 3.131 0 0 0-2.294-1.77c-4.765-1.45-9.936-.93-14.654-2.57a7.079 7.079 0 0 1-4.5-3.79 7.569 7.569 0 0 1 1.606-8.08c2.108-2.05 5.15-2.84 8.044-3.12 4-.25 8.292-.15 11.895 1.76a8.626 8.626 0 0 1 4.387 7.52.837.837 0 0 1-.915.59c-1.161 0-2.324.02-3.486 0a.888.888 0 0 1-.841-.84 5.125 5.125 0 0 0-2.539-3.55c-2.142-1.03-4.627-.98-6.964-.96a9.738 9.738 0 0 0-4.986 1.2 2.992 2.992 0 0 0-1.05 3.41 3.231 3.231 0 0 0 2.225 1.39zm27.734 23.42q-13.776 7.5-27.545 15.01a6.211 6.211 0 0 1-6.119-.17q-4.13-2.31-8.265-4.61a4.915 4.915 0 0 1-1.594-1.11 3.049 3.049 0 0 1 1.489-.71 20.172 20.172 0 0 0 3.261-1.47.773.773 0 0 1 .849.05c2.354 1.3 4.688 2.64 7.05 3.93a1.517 1.517 0 0 0 1.445-.32q13.518-7.38 27.046-14.74a.854.854 0 0 0 .491-.85q.011-14.97 0-29.94a.925.925 0 0 0-.578-.93l-27.449-14.94a.963.963 0 0 0-1.078 0l-27.446 14.94a.931.931 0 0 0-.581.93v29.94a.844.844 0 0 0 .5.84c2.442 1.34 4.887 2.66 7.33 4a5.853 5.853 0 0 0 4.583.59 3.354 3.354 0 0 0 2.251-3.15c.013-9.92-.006-19.85.01-29.76a.763.763 0 0 1 .842-.77c1.173-.01 2.348-.01 3.522.01a.784.784 0 0 1 .766.9c0 9.99.012 19.97-.008 29.95 0 2.66-1.129 5.56-3.677 6.86a11.674 11.674 0 0 1-10.122-.27c-2.685-1.29-5.248-2.82-7.885-4.21a5.514 5.514 0 0 1-3.087-4.83v-30.25a5.466 5.466 0 0 1 2.972-4.79q13.774-7.515 27.544-15.02a6.367 6.367 0 0 1 6.052 0q13.821 7.53 27.644 15.08a5.455 5.455 0 0 1 2.874 4.73v30.25a5.537 5.537 0 0 1-3.085 4.83z" transform="translate(-494.438 -1523)"/></svg>